<svg width="22" height="20" viewBox="0 0 22 20" fill="none" xmlns="http://www.w3.org/2000/svg">
<path d="M16.2276 6.75005C16.235 6.75002 16.2425 6.75 16.25 6.75C18.7353 6.75 20.75 8.7647 20.75 11.25C20.75 12.9915 19.7608 14.5019 18.3136 15.25M16.2276 6.75005C16.2424 6.58536 16.25 6.41856 16.25 6.25C16.25 3.21243 13.7876 0.75 10.75 0.75C7.87324 0.75 5.51233 2.95862 5.27042 5.7727M16.2276 6.75005C16.1253 7.8845 15.6786 8.9196 14.9928 9.75M5.27042 5.7727C2.73398 6.01407 0.75 8.1503 0.75 10.75C0.75 12.7291 1.89985 14.4396 3.56794 15.25M5.27042 5.7727C5.42826 5.75768 5.58823 5.75 5.75 5.75C6.87582 5.75 7.91474 6.12209 8.7505 6.75" stroke="#141B34" stroke-width="1.5" stroke-linecap="round" stroke-linejoin="round"/>
<path d="M9.75 15.75L9.89737 16.1483C10.0906 16.6706 10.1873 16.9317 10.3778 17.1222C10.5683 17.3127 10.8294 17.4094 11.3517 17.6026L11.75 17.75L11.3517 17.8974C10.8294 18.0906 10.5683 18.1873 10.3778 18.3778C10.1873 18.5683 10.0906 18.8294 9.89737 19.3517L9.75 19.75L9.60263 19.3517C9.40937 18.8294 9.31274 18.5683 9.12223 18.3778C8.93171 18.1873 8.67057 18.0906 8.1483 17.8974L7.75 17.75L8.1483 17.6026C8.67057 17.4094 8.93171 17.3127 9.12223 17.1222C9.31274 16.9317 9.40937 16.6706 9.60263 16.1483L9.75 15.75Z" fill="#141B34"/>
<path d="M7.25 9.75L7.43421 10.2479C7.67579 10.9007 7.79657 11.2271 8.03471 11.4653C8.27286 11.7034 8.59929 11.8242 9.25214 12.0658L9.75 12.25L9.25214 12.4342C8.59929 12.6758 8.27286 12.7966 8.03471 13.0347C7.79657 13.2729 7.67579 13.5993 7.43421 14.2521L7.25 14.75L7.06579 14.2521C6.82421 13.5993 6.70343 13.2729 6.46529 13.0347C6.22714 12.7966 5.90071 12.6758 5.24788 12.4342L4.75 12.25L5.24788 12.0658C5.90071 11.8242 6.22714 11.7034 6.46529 11.4653C6.70343 11.2271 6.82421 10.9007 7.06579 10.2479L7.25 9.75Z" fill="#141B34"/>
<path d="M13.25 10.75L13.5079 11.447C13.8461 12.361 14.0152 12.818 14.3486 13.1514C14.682 13.4848 15.139 13.6539 16.053 13.9921L16.75 14.25L16.053 14.5079C15.139 14.8461 14.682 15.0152 14.3486 15.3486C14.0152 15.682 13.8461 16.139 13.5079 17.053L13.25 17.75L12.9921 17.053C12.6539 16.139 12.4848 15.682 12.1514 15.3486C11.818 15.0152 11.361 14.8461 10.447 14.5079L9.75 14.25L10.447 13.9921C11.361 13.6539 11.818 13.4848 12.1514 13.1514C12.4848 12.818 12.6539 12.361 12.9921 11.447L13.25 10.75Z" fill="#141B34"/>
</svg>
