<svg width="23" height="17" viewBox="0 0 23 17" fill="none" xmlns="http://www.w3.org/2000/svg">
<path d="M22.1293 2.88793H19.1481C18.5055 2.88793 18.1842 2.88793 17.8812 2.79619C17.5783 2.70446 17.3109 2.52625 16.7763 2.1698C15.9743 1.63514 15.0594 1.0252 14.6049 0.887597C14.1504 0.75 13.6684 0.75 12.7046 0.75C11.3938 0.75 10.5489 0.75 9.95957 0.994109C9.37025 1.23822 8.90681 1.70167 7.97992 2.62856L7.16421 3.44426C6.95532 3.65315 6.85087 3.7576 6.78639 3.86071C6.54737 4.24296 6.57386 4.73409 6.85261 5.08841C6.92781 5.18399 7.04288 5.2766 7.27302 5.46181C8.12368 6.14639 9.35004 6.07807 10.1203 5.30317L11.4397 3.97599H12.5086L18.9224 10.428C19.5128 11.0219 19.5128 11.9847 18.9224 12.5786C18.332 13.1725 17.3749 13.1725 16.7845 12.5786L16.25 12.0409M16.25 12.0409L13.0431 8.81499M16.25 12.0409C16.8404 12.6348 16.8404 13.5978 16.25 14.1916C15.6596 14.7855 14.7025 14.7855 14.1121 14.1916L13.0431 13.1163M13.0431 13.1163C13.6335 13.7101 13.6335 14.673 13.0431 15.2669C12.4527 15.8608 11.4956 15.8608 10.9052 15.2669L9.30172 13.6539M13.0431 13.1163L10.9052 10.9784M9.30172 13.6539L8.76724 13.1163M9.30172 13.6539C9.89211 14.2478 9.89211 15.2107 9.30172 15.8046C8.71136 16.3984 7.75417 16.3984 7.16379 15.8046L4.14543 12.7233C3.5252 12.0902 3.21508 11.7737 2.81775 11.6066C2.42043 11.4396 1.97726 11.4396 1.09094 11.4396H0.75" stroke="#141B34" stroke-width="1.5" stroke-linecap="round" stroke-linejoin="round"/>
<path d="M22.1292 11.4397H19.4568" stroke="#141B34" stroke-width="1.5" stroke-linecap="round" stroke-linejoin="round"/>
<path d="M7.69828 2.88794H0.75" stroke="#141B34" stroke-width="1.5" stroke-linecap="round" stroke-linejoin="round"/>
</svg>
